<svg xmlns="http://www.w3.org/2000/svg" aria-hidden="true" role="img" width="1em" height="1em" preserveAspectRatio="xMidYMid meet" viewBox="0 0 24 24"><path fill="#aaabff" stroke="white" stroke-linecap="round" stroke-linejoin="round" stroke-width="1" d="M6.414 6.414a2 2 0 0 0 0-2.828L5 2.172L2.172 5l1.414 1.414a2 2 0 0 0 2.828 0zm11.172 11.172a2 2 0 0 0 0 2.828L19 21.828L21.828 19l-1.414-1.414a2 2 0 0 0-2.828 0zM6.5 6.5l11 11m4.5-15C12.017 5.101 4.373 10.452 2 22c9.983-2.601 17.627-7.952 20-19.5zm-15.5 10l5 5m1-11l5 5"/></svg>
